# xmcd CD database file
#
# Track frame offsets:
#	182
#	11817
#	24210
#	35927
#	49260
#	63867
#	75550
#	89235
#	99942
#	112927
#	124967
#	137987
#	151237
#	164345
#	177702
#	189082
#
# Disc length: 2693 seconds
#
# Revision: 0
# Processed by: cddbd v1.5.2PL0 Copyright (c) Steve Scherf et al.
# Submitted via: CDex 1.51
#
DISCID=d40a8310
DTITLE=Bo Diddley - Let Me Pass Plus
DYEAR=1994
DGENRE=Blues
TTITLE0=Let Me Pass
TTITLE1=Stop The Monkey
TTITLE2=Greasy Spoon
TTITLE3=Tonight Is Ours
TTITLE4=Root Hoot
TTITLE5=Stinkey
TTITLE6=Hey, Red Riding Hood
TTITLE7=Let The Kids Dance
TTITLE8=He's So Mad
TTITLE9=Soul Food
TTITLE10=Corn Bread
TTITLE11=Somebody Beat Me
TTITLE12=500% More Man
TTITLE13=Mama, Keep Your Big Mouth Shut
TTITLE14=We're Gonna Get Married
TTITLE15=Easy
EXTD=YEAR: 1994
EXTT0=
EXTT1=
EXTT2=
EXTT3=
EXTT4=
EXTT5=
EXTT6=
EXTT7=
EXTT8=
EXTT9=
EXTT10=
EXTT11=
EXTT12=
EXTT13=
EXTT14=
EXTT15=
PLAYORDER=
